<svg width="123" height="16" viewBox="0 0 123 16" fill="none" xmlns="http://www.w3.org/2000/svg">
<path d="M12.24 1.1C12.5067 1.03333 12.7933 0.986666 13.1 0.96C13.42 0.919999 13.7067 0.899999 13.96 0.899999C14.2133 0.899999 14.3867 0.953333 14.48 1.06C14.5867 1.15333 14.64 1.33333 14.64 1.6C14.64 1.98667 14.6267 2.54 14.6 3.26C14.5867 3.98 14.5667 4.83333 14.54 5.82C14.5267 6.80667 14.5067 7.90667 14.48 9.12C14.4667 10.32 14.46 11.5867 14.46 12.92C14.46 13.08 14.4667 13.2667 14.48 13.48C14.4933 13.6933 14.5133 13.9 14.54 14.1C14.5667 14.34 14.6 14.5733 14.64 14.8C14.3733 14.92 14.1067 14.9933 13.84 15.02C13.5867 15.06 13.3667 15.08 13.18 15.08C12.7267 15.08 12.44 15.0267 12.32 14.92C12.2133 14.8 12.16 14.6133 12.16 14.36C12.16 14.24 12.16 14.04 12.16 13.76C12.1733 13.48 12.18 13.1733 12.18 12.84C12.1933 12.5067 12.2 12.1733 12.2 11.84C12.2133 11.4933 12.22 11.2 12.22 10.96C12.22 10.2667 12.22 9.36667 12.22 8.26C12.2333 7.14 12.24 5.94667 12.24 4.68C12 5.10667 11.76 5.54667 11.52 6C11.28 6.44 11.0467 6.87333 10.82 7.3C10.5933 7.72667 10.38 8.13333 10.18 8.52C9.98 8.90667 9.80667 9.26 9.66 9.58C9.56667 9.76667 9.48667 9.94667 9.42 10.12C9.35333 10.2933 9.29333 10.4533 9.24 10.6C9.18667 10.76 9.13333 10.92 9.08 11.08C8.89333 11.12 8.7 11.16 8.5 11.2C8.32667 11.2267 8.14 11.2533 7.94 11.28C7.75333 11.3067 7.57333 11.32 7.4 11.32C7.12 11.32 6.89333 11.28 6.72 11.2C6.56 11.12 6.40667 10.9867 6.26 10.8C5.95333 10.4267 5.51333 9.72667 4.94 8.7C4.38 7.67333 3.74 6.31333 3.02 4.62V7.76C3.02 8.4 3.02 9.17333 3.02 10.08C3.02 10.9867 3.02667 12.1 3.04 13.42C3.04 13.6067 3.04 13.7933 3.04 13.98C3.04 14.1533 3.04667 14.3133 3.06 14.46C3.07333 14.6333 3.08667 14.8 3.1 14.96C2.87333 15 2.64 15.0267 2.4 15.04C2.16 15.0667 1.94667 15.08 1.76 15.08C1.42667 15.08 1.18 15.0133 1.02 14.88C0.86 14.7333 0.78 14.46 0.78 14.06C0.78 13.9267 0.786667 13.74 0.8 13.5C0.813333 13.26 0.826667 13.0067 0.84 12.74C0.853333 12.46 0.866667 12.1933 0.88 11.94C0.906667 11.6867 0.92 11.4733 0.92 11.3C0.92 10.82 0.926667 10.3133 0.94 9.78C0.953333 9.24667 0.96 8.71333 0.96 8.18C0.973333 7.63333 0.98 7.1 0.98 6.58C0.993333 6.06 1 5.58 1 5.14C1 4.46 0.973333 3.81333 0.92 3.2C0.88 2.58667 0.746667 1.92667 0.52 1.22C0.893333 1.14 1.28 1.06667 1.68 0.999999C2.09333 0.933332 2.47333 0.899999 2.82 0.899999C2.96667 0.899999 3.1 0.919999 3.22 0.96C3.34 0.986666 3.44 1.07333 3.52 1.22C3.68 1.54 3.90667 2.01333 4.2 2.64C4.50667 3.25333 4.84667 3.94 5.22 4.7C5.60667 5.44667 6.00667 6.21333 6.42 7C6.84667 7.78667 7.27333 8.50667 7.7 9.16C8.12667 8.29333 8.6 7.39333 9.12 6.46C9.64 5.51333 10.1333 4.64 10.6 3.84C11.1333 2.90667 11.68 1.99333 12.24 1.1ZM25.9642 13.06C25.8576 12.7533 25.7509 12.4467 25.6442 12.14C25.5509 11.8333 25.4576 11.5133 25.3642 11.18C25.2442 11.1933 25.0709 11.2067 24.8442 11.22C24.6176 11.2333 24.3576 11.2467 24.0642 11.26C23.7842 11.2733 23.4709 11.2867 23.1242 11.3C22.7909 11.3 22.4576 11.3 22.1242 11.3C21.6576 11.3 21.2176 11.2933 20.8042 11.28C20.3909 11.2667 20.0642 11.2467 19.8242 11.22C19.5842 11.98 19.4109 12.6467 19.3042 13.22C19.1976 13.78 19.1442 14.3467 19.1442 14.92C18.9976 14.9467 18.8376 14.9733 18.6642 15C18.5176 15.0267 18.3376 15.0467 18.1242 15.06C17.9109 15.0733 17.6709 15.08 17.4042 15.08C17.0842 15.08 16.8776 15.0067 16.7842 14.86C16.6909 14.7 16.6976 14.3533 16.8042 13.82C16.8842 13.3667 17.0376 12.8267 17.2642 12.2C17.5042 11.56 17.7709 10.8733 18.0642 10.14C18.3709 9.39333 18.6976 8.62667 19.0442 7.84C19.3909 7.04 19.7242 6.25333 20.0442 5.48C20.3642 4.69333 20.6576 3.94 20.9242 3.22C21.1909 2.48667 21.3976 1.82667 21.5442 1.24C21.7976 1.18667 22.0509 1.13333 22.3042 1.08C22.5309 1.04 22.7642 1.00667 23.0042 0.979999C23.2576 0.939999 23.4976 0.919999 23.7242 0.919999C23.9776 0.919999 24.1776 0.939999 24.3242 0.979999C24.4842 1.00667 24.6109 1.06667 24.7042 1.16C24.8109 1.24 24.9042 1.36667 24.9842 1.54C25.0642 1.71333 25.1576 1.94 25.2642 2.22C25.4109 2.60667 25.5642 3.12667 25.7242 3.78C25.8976 4.43333 26.0842 5.15333 26.2842 5.94C26.4842 6.72667 26.6976 7.56 26.9242 8.44C27.1642 9.32 27.4176 10.1867 27.6842 11.04C27.8709 11.64 28.0842 12.1133 28.3242 12.46C28.5642 12.8067 28.8776 12.98 29.2642 12.98C29.3709 12.98 29.4576 12.9733 29.5242 12.96V13.24C29.5242 13.3333 29.5242 13.4333 29.5242 13.54C29.5376 13.6467 29.5442 13.7667 29.5442 13.9C29.5442 14.2467 29.4442 14.5333 29.2442 14.76C29.0442 14.9733 28.6776 15.08 28.1442 15.08C27.8776 15.08 27.6376 15.0533 27.4242 15C27.2242 14.96 27.0376 14.8733 26.8642 14.74C26.6909 14.5933 26.5309 14.3867 26.3842 14.12C26.2509 13.8533 26.1109 13.5 25.9642 13.06ZM23.1442 3.16C22.9442 3.61333 22.7242 4.1 22.4842 4.62C22.2576 5.14 22.0242 5.68 21.7842 6.24C21.5442 6.78667 21.3042 7.34 21.0642 7.9C20.8376 8.44667 20.6242 8.97333 20.4242 9.48C20.6642 9.49333 20.9776 9.50667 21.3642 9.52C21.7642 9.52 22.1909 9.52 22.6442 9.52C23.0709 9.52 23.4976 9.51333 23.9242 9.5C24.3509 9.47333 24.6776 9.44667 24.9042 9.42C24.6109 8.26 24.3376 7.17333 24.0842 6.16C23.8442 5.13333 23.5309 4.13333 23.1442 3.16ZM37.0302 15.26C36.1235 15.26 35.2768 15.12 34.4902 14.84C33.7035 14.5467 33.0168 14.1133 32.4302 13.54C31.8435 12.9667 31.3768 12.2467 31.0302 11.38C30.6968 10.5 30.5302 9.48 30.5302 8.32C30.5302 7.34667 30.6635 6.40667 30.9302 5.5C31.2102 4.58 31.6168 3.77333 32.1502 3.08C32.6968 2.38667 33.3702 1.83333 34.1702 1.42C34.9835 0.993333 35.9168 0.779999 36.9702 0.779999C37.3835 0.779999 37.7502 0.793333 38.0702 0.819999C38.4035 0.833333 38.7102 0.853333 38.9902 0.879999C39.2835 0.893333 39.5568 0.913333 39.8102 0.94C40.0768 0.953333 40.3435 0.96 40.6102 0.96C40.6102 1.76 40.5502 2.32 40.4302 2.64C40.3102 2.96 40.0702 3.12 39.7102 3.12C39.5102 3.12 39.3102 3.10667 39.1102 3.08C38.9235 3.04 38.7168 3.00667 38.4902 2.98C38.2768 2.94 38.0368 2.90667 37.7702 2.88C37.5035 2.84 37.2035 2.82 36.8702 2.82C36.3368 2.82 35.8302 2.94 35.3502 3.18C34.8702 3.42 34.4502 3.76667 34.0902 4.22C33.7302 4.66 33.4435 5.20667 33.2302 5.86C33.0302 6.51333 32.9302 7.26 32.9302 8.1C32.9302 9.71333 33.3035 10.9667 34.0502 11.86C34.7968 12.74 35.8035 13.18 37.0702 13.18C37.8168 13.18 38.4568 13.06 38.9902 12.82C39.5235 12.58 39.9568 12.3267 40.2902 12.06C40.4635 12.2867 40.5968 12.5467 40.6902 12.84C40.7835 13.1333 40.8302 13.3933 40.8302 13.62C40.8302 13.86 40.7168 14.08 40.4902 14.28C40.2768 14.48 39.9902 14.6533 39.6302 14.8C39.2702 14.9467 38.8635 15.06 38.4102 15.14C37.9568 15.22 37.4968 15.26 37.0302 15.26ZM51.1791 13.06C51.0724 12.7533 50.9657 12.4467 50.8591 12.14C50.7657 11.8333 50.6724 11.5133 50.5791 11.18C50.4591 11.1933 50.2857 11.2067 50.0591 11.22C49.8324 11.2333 49.5724 11.2467 49.2791 11.26C48.9991 11.2733 48.6857 11.2867 48.3391 11.3C48.0057 11.3 47.6724 11.3 47.3391 11.3C46.8724 11.3 46.4324 11.2933 46.0191 11.28C45.6057 11.2667 45.2791 11.2467 45.0391 11.22C44.7991 11.98 44.6257 12.6467 44.5191 13.22C44.4124 13.78 44.3591 14.3467 44.3591 14.92C44.2124 14.9467 44.0524 14.9733 43.8791 15C43.7324 15.0267 43.5524 15.0467 43.3391 15.06C43.1257 15.0733 42.8857 15.08 42.6191 15.08C42.2991 15.08 42.0924 15.0067 41.9991 14.86C41.9057 14.7 41.9124 14.3533 42.0191 13.82C42.0991 13.3667 42.2524 12.8267 42.4791 12.2C42.7191 11.56 42.9857 10.8733 43.2791 10.14C43.5857 9.39333 43.9124 8.62667 44.2591 7.84C44.6057 7.04 44.9391 6.25333 45.2591 5.48C45.5791 4.69333 45.8724 3.94 46.1391 3.22C46.4057 2.48667 46.6124 1.82667 46.7591 1.24C47.0124 1.18667 47.2657 1.13333 47.5191 1.08C47.7457 1.04 47.9791 1.00667 48.2191 0.979999C48.4724 0.939999 48.7124 0.919999 48.9391 0.919999C49.1924 0.919999 49.3924 0.939999 49.5391 0.979999C49.6991 1.00667 49.8257 1.06667 49.9191 1.16C50.0257 1.24 50.1191 1.36667 50.1991 1.54C50.2791 1.71333 50.3724 1.94 50.4791 2.22C50.6257 2.60667 50.7791 3.12667 50.9391 3.78C51.1124 4.43333 51.2991 5.15333 51.4991 5.94C51.6991 6.72667 51.9124 7.56 52.1391 8.44C52.3791 9.32 52.6324 10.1867 52.8991 11.04C53.0857 11.64 53.2991 12.1133 53.5391 12.46C53.7791 12.8067 54.0924 12.98 54.4791 12.98C54.5857 12.98 54.6724 12.9733 54.7391 12.96V13.24C54.7391 13.3333 54.7391 13.4333 54.7391 13.54C54.7524 13.6467 54.7591 13.7667 54.7591 13.9C54.7591 14.2467 54.6591 14.5333 54.4591 14.76C54.2591 14.9733 53.8924 15.08 53.3591 15.08C53.0924 15.08 52.8524 15.0533 52.6391 15C52.4391 14.96 52.2524 14.8733 52.0791 14.74C51.9057 14.5933 51.7457 14.3867 51.5991 14.12C51.4657 13.8533 51.3257 13.5 51.1791 13.06ZM48.3591 3.16C48.1591 3.61333 47.9391 4.1 47.6991 4.62C47.4724 5.14 47.2391 5.68 46.9991 6.24C46.7591 6.78667 46.5191 7.34 46.2791 7.9C46.0524 8.44667 45.8391 8.97333 45.6391 9.48C45.8791 9.49333 46.1924 9.50667 46.5791 9.52C46.9791 9.52 47.4057 9.52 47.8591 9.52C48.2857 9.52 48.7124 9.51333 49.1391 9.5C49.5657 9.47333 49.8924 9.44667 50.1191 9.42C49.8257 8.26 49.5524 7.17333 49.2991 6.16C49.0591 5.13333 48.7457 4.13333 48.3591 3.16ZM66.398 5.1C66.398 6.14 66.1513 7 65.658 7.68C65.178 8.36 64.4713 8.86 63.538 9.18C63.898 9.96667 64.218 10.6 64.498 11.08C64.778 11.56 65.038 11.9333 65.278 12.2C65.5313 12.4667 65.7646 12.6467 65.978 12.74C66.1913 12.8333 66.4046 12.88 66.618 12.88C66.7646 12.88 66.8713 12.8733 66.938 12.86L67.098 12.82C67.098 12.9267 67.1046 13.0333 67.118 13.14C67.1313 13.2467 67.138 13.36 67.138 13.48C67.1513 13.5867 67.158 13.7 67.158 13.82C67.158 14.1667 67.0713 14.4733 66.898 14.74C66.738 14.9933 66.4046 15.12 65.898 15.12C65.4446 15.12 65.0313 15.0333 64.658 14.86C64.2846 14.6733 63.9246 14.3667 63.578 13.94C63.2313 13.5 62.878 12.9267 62.518 12.22C62.158 11.5133 61.7713 10.6333 61.358 9.58H60.658C60.2313 9.58 59.8713 9.56 59.578 9.52C59.4046 9.50667 59.2446 9.48667 59.098 9.46C59.0846 9.84667 59.0713 10.2733 59.058 10.74C59.058 11.1933 59.058 11.5667 59.058 11.86C59.058 12.2467 59.0646 12.62 59.078 12.98C59.1046 13.3267 59.1313 13.64 59.158 13.92C59.1846 14.2533 59.218 14.56 59.258 14.84C59.0713 14.88 58.8846 14.92 58.698 14.96C58.538 14.9867 58.358 15.0133 58.158 15.04C57.9713 15.0667 57.7846 15.08 57.598 15.08C57.318 15.08 57.1046 15.0333 56.958 14.94C56.8113 14.8467 56.738 14.6267 56.738 14.28C56.738 13.2933 56.758 12.1733 56.798 10.92C56.8513 9.65333 56.878 8.3 56.878 6.86C56.878 5.91333 56.8446 4.99333 56.778 4.1C56.7246 3.19333 56.5646 2.26667 56.298 1.32C56.7246 1.24 57.158 1.17333 57.598 1.12C58.0513 1.05333 58.4913 0.999999 58.918 0.96C59.3446 0.919999 59.7513 0.893333 60.138 0.879999C60.538 0.853333 60.8913 0.84 61.198 0.84C61.9446 0.84 62.6313 0.92 63.258 1.08C63.898 1.24 64.4513 1.49333 64.918 1.84C65.3846 2.17333 65.7446 2.61333 65.998 3.16C66.2646 3.69333 66.398 4.34 66.398 5.1ZM63.998 5.2C63.998 4.82667 63.938 4.48667 63.818 4.18C63.7113 3.87333 63.538 3.61333 63.298 3.4C63.058 3.17333 62.7446 3 62.358 2.88C61.9846 2.76 61.5313 2.7 60.998 2.7C60.6113 2.7 60.2313 2.72 59.858 2.76C59.498 2.8 59.1913 2.83333 58.938 2.86C58.9646 3.24667 58.9913 3.68667 59.018 4.18C59.0446 4.60667 59.0646 5.10667 59.078 5.68C59.0913 6.25333 59.098 6.88667 59.098 7.58C59.258 7.60667 59.4313 7.63333 59.618 7.66C59.938 7.7 60.338 7.72 60.818 7.72C61.898 7.72 62.698 7.5 63.218 7.06C63.738 6.62 63.998 6 63.998 5.2ZM75.25 15.3C74.21 15.3 73.29 15.1333 72.49 14.8C71.69 14.4533 71.0233 13.9733 70.49 13.36C69.9567 12.7333 69.55 11.9867 69.27 11.12C69.0033 10.2533 68.87 9.28667 68.87 8.22C68.87 7.23333 69.0167 6.28667 69.31 5.38C69.6033 4.47333 70.0233 3.67333 70.57 2.98C71.1167 2.28667 71.7833 1.73333 72.57 1.32C73.37 0.906666 74.2633 0.699999 75.25 0.699999C76.3167 0.699999 77.25 0.873333 78.05 1.22C78.85 1.55333 79.5167 2.03333 80.05 2.66C80.5833 3.27333 80.9833 4.02 81.25 4.9C81.5167 5.76667 81.65 6.72667 81.65 7.78C81.65 8.76667 81.5033 9.71333 81.21 10.62C80.9167 11.5133 80.49 12.3133 79.93 13.02C79.3833 13.7133 78.71 14.2667 77.91 14.68C77.1233 15.0933 76.2367 15.3 75.25 15.3ZM75.33 13.32C75.8633 13.32 76.3633 13.1933 76.83 12.94C77.31 12.6733 77.73 12.3067 78.09 11.84C78.45 11.3733 78.73 10.8067 78.93 10.14C79.1433 9.47333 79.25 8.73333 79.25 7.92C79.25 7.09333 79.15 6.36 78.95 5.72C78.75 5.06667 78.47 4.51333 78.11 4.06C77.75 3.60667 77.3233 3.26667 76.83 3.04C76.3367 2.8 75.7967 2.68 75.21 2.68C74.69 2.68 74.19 2.80667 73.71 3.06C73.23 3.3 72.8033 3.65333 72.43 4.12C72.07 4.58667 71.7833 5.15333 71.57 5.82C71.3567 6.47333 71.25 7.22 71.25 8.06C71.25 8.88667 71.35 9.62667 71.55 10.28C71.75 10.9333 72.03 11.4867 72.39 11.94C72.75 12.3933 73.1767 12.74 73.67 12.98C74.1767 13.2067 74.73 13.32 75.33 13.32ZM90.2695 15.3C89.2295 15.3 88.3095 15.1333 87.5095 14.8C86.7095 14.4533 86.0429 13.9733 85.5095 13.36C84.9762 12.7333 84.5695 11.9867 84.2895 11.12C84.0229 10.2533 83.8895 9.28667 83.8895 8.22C83.8895 7.23333 84.0362 6.28667 84.3295 5.38C84.6229 4.47333 85.0429 3.67333 85.5895 2.98C86.1362 2.28667 86.8029 1.73333 87.5895 1.32C88.3895 0.906666 89.2829 0.699999 90.2695 0.699999C91.3362 0.699999 92.2695 0.873333 93.0695 1.22C93.8695 1.55333 94.5362 2.03333 95.0695 2.66C95.6029 3.27333 96.0029 4.02 96.2695 4.9C96.5362 5.76667 96.6695 6.72667 96.6695 7.78C96.6695 8.76667 96.5229 9.71333 96.2295 10.62C95.9362 11.5133 95.5095 12.3133 94.9495 13.02C94.4029 13.7133 93.7295 14.2667 92.9295 14.68C92.1429 15.0933 91.2562 15.3 90.2695 15.3ZM90.3495 13.32C90.8829 13.32 91.3829 13.1933 91.8495 12.94C92.3295 12.6733 92.7495 12.3067 93.1095 11.84C93.4695 11.3733 93.7495 10.8067 93.9495 10.14C94.1629 9.47333 94.2695 8.73333 94.2695 7.92C94.2695 7.09333 94.1695 6.36 93.9695 5.72C93.7695 5.06667 93.4895 4.51333 93.1295 4.06C92.7695 3.60667 92.3429 3.26667 91.8495 3.04C91.3562 2.8 90.8162 2.68 90.2295 2.68C89.7095 2.68 89.2095 2.80667 88.7295 3.06C88.2495 3.3 87.8229 3.65333 87.4495 4.12C87.0895 4.58667 86.8029 5.15333 86.5895 5.82C86.3762 6.47333 86.2695 7.22 86.2695 8.06C86.2695 8.88667 86.3695 9.62667 86.5695 10.28C86.7695 10.9333 87.0495 11.4867 87.4095 11.94C87.7695 12.3933 88.1962 12.74 88.6895 12.98C89.1962 13.2067 89.7495 13.32 90.3495 13.32ZM102.349 1.76C103.429 3.6 104.476 5.32 105.489 6.92C106.516 8.52 107.542 10.0333 108.569 11.46C108.556 10.1933 108.549 8.93333 108.549 7.68C108.549 6.42667 108.549 5.29333 108.549 4.28C108.549 4.08 108.536 3.80667 108.509 3.46C108.482 3.1 108.456 2.74667 108.429 2.4C108.389 2 108.356 1.57333 108.329 1.12C108.596 1.05333 108.869 1.00667 109.149 0.979999C109.442 0.939999 109.716 0.919999 109.969 0.919999C110.209 0.919999 110.402 0.966666 110.549 1.06C110.696 1.14 110.769 1.30667 110.769 1.56C110.769 1.8 110.756 2.13333 110.729 2.56C110.716 2.98667 110.689 3.45333 110.649 3.96C110.622 4.45333 110.596 4.96 110.569 5.48C110.556 5.98667 110.549 6.45333 110.549 6.88C110.549 7.42667 110.549 8.04667 110.549 8.74C110.549 9.43333 110.556 10.14 110.569 10.86C110.582 11.58 110.596 12.2867 110.609 12.98C110.636 13.6733 110.669 14.2933 110.709 14.84C110.442 14.9333 110.189 14.9933 109.949 15.02C109.709 15.06 109.496 15.08 109.309 15.08C109.042 15.08 108.822 15.0333 108.649 14.94C108.489 14.8467 108.316 14.68 108.129 14.44C107.529 13.68 106.936 12.8867 106.349 12.06C105.776 11.2333 105.216 10.4133 104.669 9.6C104.136 8.77333 103.622 7.96 103.129 7.16C102.636 6.34667 102.182 5.58 101.769 4.86C101.742 5.74 101.722 6.72 101.709 7.8C101.709 8.86667 101.709 9.95333 101.709 11.06C101.709 11.6067 101.709 12.2 101.709 12.84C101.722 13.4667 101.742 14.16 101.769 14.92C101.262 15.0267 100.829 15.08 100.469 15.08C100.109 15.08 99.8624 15.02 99.7291 14.9C99.6091 14.78 99.5491 14.5067 99.5491 14.08C99.5491 13.48 99.5624 12.86 99.5891 12.22C99.6157 11.5667 99.6424 10.9333 99.6691 10.32C99.6957 9.18667 99.7157 8.03333 99.7291 6.86C99.7557 5.67333 99.7691 4.54667 99.7691 3.48C99.7691 3.26667 99.7291 2.96667 99.6491 2.58C99.5824 2.19333 99.4624 1.72 99.2891 1.16C99.4357 1.12 99.5957 1.08 99.7691 1.04C99.9157 1.01333 100.089 0.986666 100.289 0.96C100.502 0.933332 100.722 0.919999 100.949 0.919999C101.336 0.919999 101.616 0.986666 101.789 1.12C101.976 1.24 102.162 1.45333 102.349 1.76ZM117.96 13.24C118.733 13.24 119.32 13.0667 119.72 12.72C120.12 12.36 120.32 11.9 120.32 11.34C120.32 11.0733 120.287 10.8333 120.22 10.62C120.153 10.3933 120.013 10.1867 119.8 10C119.6 9.8 119.313 9.61333 118.94 9.44C118.567 9.26667 118.073 9.09333 117.46 8.92C116.127 8.54667 115.133 8.05333 114.48 7.44C113.827 6.82667 113.5 5.98667 113.5 4.92C113.5 4.2 113.627 3.58 113.88 3.06C114.133 2.54 114.467 2.11333 114.88 1.78C115.307 1.43333 115.8 1.18 116.36 1.02C116.92 0.859999 117.5 0.779999 118.1 0.779999C118.887 0.779999 119.6 0.833333 120.24 0.94C120.88 1.03333 121.427 1.08 121.88 1.08V1.2C121.88 1.24 121.88 1.28667 121.88 1.34C121.893 1.39333 121.9 1.45333 121.9 1.52C121.9 2.64 121.627 3.2 121.08 3.2C120.893 3.2 120.693 3.18 120.48 3.14C120.28 3.1 120.06 3.05333 119.82 3C119.58 2.94667 119.313 2.9 119.02 2.86C118.727 2.82 118.4 2.8 118.04 2.8C117.32 2.8 116.767 2.96 116.38 3.28C115.993 3.6 115.8 4.06 115.8 4.66C115.8 4.88667 115.827 5.09333 115.88 5.28C115.933 5.46667 116.047 5.64667 116.22 5.82C116.407 5.99333 116.667 6.16 117 6.32C117.333 6.48 117.787 6.64667 118.36 6.82C119.027 7.02 119.62 7.23333 120.14 7.46C120.673 7.68667 121.12 7.96667 121.48 8.3C121.853 8.62 122.133 9.01333 122.32 9.48C122.52 9.93333 122.62 10.4867 122.62 11.14C122.62 11.82 122.48 12.42 122.2 12.94C121.92 13.46 121.547 13.8933 121.08 14.24C120.627 14.5733 120.1 14.8267 119.5 15C118.913 15.1733 118.3 15.26 117.66 15.26C117.033 15.26 116.453 15.2133 115.92 15.12C115.4 15.04 114.947 14.9267 114.56 14.78C114.187 14.6333 113.893 14.4533 113.68 14.24C113.467 14.0267 113.36 13.7933 113.36 13.54C113.36 13.22 113.407 12.9267 113.5 12.66C113.607 12.38 113.747 12.0867 113.92 11.78C114.187 11.98 114.453 12.1733 114.72 12.36C115 12.5333 115.293 12.6867 115.6 12.82C115.92 12.94 116.273 13.04 116.66 13.12C117.047 13.2 117.48 13.24 117.96 13.24Z" fill="#fff"/>
</svg>
