<?xml version="1.0" encoding="UTF-8" ?>
<!DOCTYPE svg PUBLIC "-//W3C//DTD SVG 1.1//EN" "http://www.w3.org/Graphics/SVG/1.1/DTD/svg11.dtd">
<svg width="53pt" height="52pt" viewBox="0 0 53 52" version="1.1" xmlns="http://www.w3.org/2000/svg">
<g id="#fbfbfbfb">
<path fill="#fbfbfb" opacity="1.00" d=" M 16.02 0.00 L 20.36 0.00 C 22.50 1.11 23.97 2.99 24.98 5.13 C 24.57 5.54 23.76 6.34 23.35 6.75 C 25.02 7.49 26.89 7.31 28.65 7.62 C 28.69 9.46 28.35 11.28 28.11 13.10 C 27.53 12.60 26.38 11.59 25.80 11.08 C 26.23 9.96 26.65 8.83 27.05 7.70 C 24.88 8.50 22.77 10.03 23.30 12.68 C 23.08 12.12 22.65 11.00 22.44 10.44 C 19.53 10.45 16.65 10.00 13.85 9.24 C 13.30 9.83 12.75 10.41 12.20 10.99 C 15.64 10.98 19.25 11.09 22.36 12.77 C 17.25 13.15 12.23 14.59 7.09 14.44 C 5.26 14.12 2.85 14.50 1.67 12.73 C 2.81 12.64 5.09 12.46 6.22 12.37 C 5.26 11.28 4.29 10.21 3.32 9.13 C 5.54 9.80 7.80 10.37 10.10 10.69 C 10.91 9.71 11.74 8.75 12.56 7.78 L 10.91 7.86 C 11.02 4.24 13.89 1.76 16.90 0.27 L 16.02 0.00 M 14.30 5.83 C 14.86 5.72 15.96 5.52 16.52 5.42 L 16.42 6.86 C 16.84 6.77 17.67 6.59 18.09 6.50 C 19.08 8.18 21.34 10.32 23.40 9.55 C 24.72 7.47 22.29 6.11 21.10 4.87 L 21.16 4.52 C 22.17 4.76 23.19 4.74 24.16 4.35 C 22.57 3.17 21.13 1.38 18.99 1.20 C 16.56 1.49 14.29 3.18 14.30 5.83 Z" />
<path fill="#fbfbfb" opacity="1.00" d=" M 31.54 4.82 C 34.50 2.98 37.83 0.61 41.50 1.60 C 43.86 2.33 44.09 5.08 44.21 7.14 C 47.14 7.17 50.07 7.40 53.00 7.53 L 53.00 8.47 L 52.67 8.00 C 50.10 10.11 47.64 12.34 45.04 14.41 C 44.88 16.95 44.72 19.48 44.54 22.02 C 47.44 19.44 51.30 17.29 51.89 13.06 C 52.35 11.90 52.70 10.69 53.00 9.47 L 53.00 17.09 L 52.99 15.84 C 52.02 17.61 50.56 18.99 48.86 20.05 C 50.26 22.10 49.01 24.54 48.65 26.71 C 47.47 31.30 47.13 36.03 47.04 40.75 C 42.45 44.47 37.52 47.81 33.34 52.00 L 32.92 52.00 C 33.10 51.50 33.47 50.49 33.66 49.98 C 35.20 48.64 36.68 47.23 38.17 45.83 C 38.22 39.71 38.04 33.55 39.06 27.49 C 37.52 28.26 35.97 29.00 34.42 29.71 C 36.49 27.78 38.86 26.21 41.29 24.75 C 41.53 22.03 41.72 19.29 41.99 16.57 C 39.52 18.30 36.93 19.91 34.04 20.83 C 36.31 18.96 38.76 17.31 41.16 15.61 C 37.98 14.81 34.76 14.23 31.56 13.52 C 35.42 11.57 39.91 13.44 44.05 13.13 C 45.52 11.79 46.98 10.44 48.40 9.06 C 47.04 8.87 45.68 8.67 44.33 8.46 C 44.20 8.88 43.95 9.74 43.82 10.17 C 42.91 6.96 38.61 8.26 36.18 8.67 C 37.30 8.62 39.52 8.53 40.64 8.48 C 41.42 9.05 42.20 9.63 42.96 10.22 C 38.63 12.06 33.79 12.24 29.15 12.57 C 32.36 8.06 37.76 6.59 43.01 6.27 C 42.70 5.45 42.07 3.81 41.76 2.99 C 38.65 2.22 35.72 3.38 33.12 5.01 C 30.71 6.61 27.86 5.01 25.69 3.75 C 27.60 4.18 29.56 5.17 31.54 4.82 M 48.27 20.35 C 46.96 22.36 44.71 23.35 43.02 24.96 C 41.08 30.79 41.35 37.01 40.72 43.05 C 42.28 42.21 43.57 40.98 44.83 39.75 C 45.27 33.91 46.32 28.04 48.63 22.62 C 48.54 22.05 48.36 20.92 48.27 20.35 Z" />
<path fill="#fbfbfb" opacity="1.00" d=" M 29.61 8.86 L 30.24 8.82 C 30.08 8.99 29.76 9.31 29.60 9.48 L 29.61 8.86 Z" />
<path fill="#fbfbfb" opacity="1.00" d=" M 13.92 18.54 C 18.13 16.63 22.24 14.46 26.65 13.03 C 24.72 16.19 20.83 17.21 18.17 19.64 C 20.11 20.00 22.05 20.33 23.99 20.68 C 25.35 17.97 26.18 14.58 29.02 13.01 C 28.55 16.45 27.61 22.91 32.28 23.64 L 32.63 23.58 C 33.20 26.40 33.00 29.24 32.24 31.99 C 31.56 38.62 31.24 45.38 32.22 52.00 L 28.49 52.00 C 21.85 49.83 15.09 48.06 8.31 46.45 C 11.08 46.48 13.84 46.67 16.59 47.05 C 16.84 40.79 16.52 34.38 14.40 28.44 C 13.65 26.37 8.99 27.42 9.19 25.19 C 10.50 25.26 11.80 25.46 13.08 25.78 C 13.08 23.85 13.10 21.93 13.12 20.00 C 9.41 18.92 5.70 17.80 2.05 16.49 C 2.25 18.08 2.20 19.66 1.91 21.23 C 1.22 18.93 0.64 16.61 0.07 14.28 C 4.65 15.81 9.25 17.29 13.92 18.54 M 16.80 20.67 C 16.82 22.74 16.83 24.82 16.83 26.89 C 21.58 27.61 26.38 28.24 31.19 28.04 C 31.27 27.47 31.43 26.32 31.51 25.75 C 30.46 24.68 29.07 23.53 27.50 23.48 C 27.40 24.30 27.20 25.93 27.10 26.74 C 25.30 25.58 24.52 23.58 24.13 21.57 C 21.64 21.84 19.20 21.21 16.80 20.67 M 18.31 28.85 C 19.67 35.06 19.99 41.43 20.19 47.77 C 23.39 48.61 26.58 49.50 29.77 50.39 C 29.35 43.70 29.51 36.90 30.64 30.29 C 26.49 30.22 22.41 29.39 18.31 28.85 Z" />
<path fill="#fbfbfb" opacity="1.00" d=" M 3.78 24.38 C 4.65 24.44 6.39 24.56 7.27 24.61 C 7.25 25.01 7.21 25.80 7.20 26.20 C 7.98 32.03 8.55 37.97 7.93 43.84 C 7.17 37.27 6.67 30.44 3.78 24.38 Z" />
</g>
</svg>
